<!-- Generated by IcoMoon.io -->
<svg version="1.1" xmlns="http://www.w3.org/2000/svg" width="1024" height="1024" viewBox="0 0 1024 1024">
<title></title>
<g id="icomoon-ignore">
</g>
<path d="M512.001 46.545c-185.9 0-337.14 151.24-337.14 337.138 0 230.705 301.708 569.396 314.553 583.704 12.065 13.433 33.13 13.414 45.174 0 12.846-14.308 314.552-352.999 314.552-583.704-0.004-185.898-151.241-337.138-337.14-337.138zM512.001 900.598c-101.54-120.614-276.427-358.576-276.427-516.911 0-152.425 124.004-276.429 276.427-276.429s276.428 124.004 276.428 276.427c-0.002 158.342-174.862 396.26-276.428 516.912z" fill="#fff"></path>
<path d="M511.999 214.061c-93.53 0-169.621 76.093-169.621 169.624s76.093 169.624 169.621 169.624c93.529 0 169.619-76.093 169.619-169.624s-76.090-169.624-169.619-169.624zM511.999 492.596c-60.054 0-108.908-48.856-108.908-108.911s48.856-108.911 108.908-108.911c60.053 0 108.909 48.856 108.909 108.911s-48.856 108.911-108.909 108.911z" fill="#fff"></path>
</svg>
