<!-- Generated by IcoMoon.io -->
<svg version="1.1" xmlns="http://www.w3.org/2000/svg" width="1024" height="1024" viewBox="0 0 1024 1024">
<title></title>
<g id="icomoon-ignore">
</g>
<path d="M895.638 157.454h-767.275c-45.059 0-81.819 36.72-81.819 81.818v545.455c0 44.945 36.597 81.818 81.819 81.818h767.275c44.944 0 81.818-36.596 81.818-81.818v-545.455c0-44.945-36.594-81.818-81.818-81.818zM884.338 211.999l-370.604 370.606-373.808-370.606h744.413zM101.091 773.432v-523.125l262.689 260.436-262.689 262.69zM139.659 811.999l262.855-262.855 92.103 91.313c10.662 10.571 27.868 10.537 38.486-0.084l89.806-89.805 261.431 261.431h-744.681zM922.905 773.43l-261.427-261.431 261.427-261.433v522.864z" fill="#fff"></path>
</svg>
