<!-- Generated by IcoMoon.io -->
<svg version="1.1" xmlns="http://www.w3.org/2000/svg" width="1024" height="1024" viewBox="0 0 1024 1024">
<title></title>
<g id="icomoon-ignore">
</g>
<path d="M953.502 733.151l-115.724-115.726c-31.905-31.903-83.822-31.903-115.725 0l-52.602 52.602c-24.171 24.171-63.502 24.164-87.664 0.009l-228.001-228.195c-24.227-24.227-24.231-63.44 0-87.67 8.473-8.473 32.802-32.802 52.602-52.602 31.765-31.764 32.209-83.518-0.031-115.755l-115.694-115.33c-31.906-31.904-83.821-31.904-115.64-0.084-23.812 23.604-31.492 31.218-42.167 41.802-115.055 115.053-115.055 302.258-0.006 417.307l361.259 361.447c115.324 115.326 301.979 115.335 417.307 0l42.086-42.082c31.912-31.905 31.912-83.818 0-115.723zM213.513 109.058c10.635-10.635 27.937-10.636 38.606 0.029l115.695 115.331c10.66 10.66 10.66 27.912 0 38.575l-19.289 19.287-154.2-154.2 19.189-19.022zM532.69 852.387l-361.261-361.451c-89.014-89.014-93.907-228.788-15.047-323.647l153.754 153.753c-40.401 45.798-38.717 115.585 5.067 159.369l227.993 228.184c0.002 0.002 0.006 0.006 0.007 0.007 43.737 43.738 113.521 45.531 159.375 5.076l153.756 153.756c-94.558 78.723-234.017 74.58-323.645-15.047zM914.934 810.3l-19.288 19.288-154.305-154.301 19.286-19.288c10.637-10.635 27.94-10.637 38.577 0l115.721 115.725c10.64 10.637 10.64 27.942 0.009 38.575z" fill="#fff"></path>
</svg>
